<?xml version="1.0" standalone="no"?>
<!DOCTYPE svg PUBLIC "-//W3C//DTD SVG 20010904//EN"
 "http://www.w3.org/TR/2001/REC-SVG-20010904/DTD/svg10.dtd">
<svg version="1.0" xmlns="http://www.w3.org/2000/svg"
 width="234.000000pt" height="234.000000pt" viewBox="0 0 234.000000 234.000000"
 preserveAspectRatio="xMidYMid meet">
<metadata>
Created by potrace 1.11, written by Peter Selinger 2001-2013
</metadata>
<g transform="translate(0.000000,234.000000) scale(0.100000,-0.100000)"
fill="#000000" stroke="none">
<path d="M1146 2137 c-11 -17 -27 -45 -37 -62 -9 -16 -72 -127 -141 -245 -68
-118 -135 -235 -149 -260 -13 -25 -27 -46 -31 -48 -5 -2 -8 -7 -8 -11 0 -7
-186 -335 -211 -371 -5 -8 -15 -27 -22 -42 -6 -16 -15 -28 -19 -28 -4 0 -8 -4
-8 -9 0 -5 -26 -54 -58 -108 -32 -54 -61 -105 -65 -113 -4 -8 -13 -24 -20 -35
-7 -11 -32 -54 -55 -95 -24 -41 -47 -82 -52 -90 -41 -65 -260 -451 -260 -457
0 -5 522 -9 1160 -9 638 0 1160 4 1160 8 0 4 -24 49 -54 100 -29 51 -106 185
-171 298 -65 113 -128 221 -139 241 -46 81 -90 156 -249 432 -92 158 -167 292
-167 297 0 6 -4 10 -10 10 -5 0 -10 4 -10 10 0 5 -22 47 -49 92 -27 46 -62
106 -77 134 -93 164 -229 394 -234 394 -3 0 -14 -15 -24 -33z"/>
</g>
</svg>
